# xmcd
#
# Track frame offsets: 
#        182
#        16390
#        30010
#        45257
#        67335
#        81075
#        102197
#        117107
#        134177
#        148017
#        169047
#        185945
#        199665
#
# Disc length: 2875 seconds
#
# Revision: 9
# Processed by: cddbd v1.5.2PL0 Copyright (c) Steve Scherf et al.
# Submitted via: ExactAudioCopy v1.4
#
DISCID=b40b390d
DTITLE=The Rankin Family - North Country
DYEAR=1993
DGENRE=IRE/UK Folk
TTITLE0=North Country
TTITLE1=Oich U Agus H-iùraibh Éile (Love Song)
TTITLE2=Borders and Time
TTITLE3=Mull River Shuffle
TTITLE4=Lisa Brown
TTITLE5=Ho Ro Mo Nighean Donn Bhòidheach (Ho Ro My Nut Brown Maiden)
TTITLE6=Tramp Miner
TTITLE7=Rise Again
TTITLE8=Leis an Lurgainn (Boat Song)
TTITLE9=Christy Campbell Medley: Christy Campbell Strathsby - Lord Murr
TTITLE9=ay Strathsby - Lord Murray Reel - The Thunderbolt Reel - The Weas
TTITLE9=el
TTITLE10=Saved In The Arms
TTITLE11=Johnny Tulloch
TTITLE12=Turn That Boat Around
EXTD=Corrected non-english accents on song-titles\n\n\n
EXTT0=
EXTT1=
EXTT2=
EXTT3=
EXTT4=
EXTT5=
EXTT6=
EXTT7=
EXTT8=
EXTT9=
EXTT10=
EXTT11=
EXTT12=
PLAYORDER=
